# xmcd
# 
# Track frame offsets:
#     150
#     3945
#     6647
#     13547
#     33445
#     41085
#     42937
#     55207
#     73600
#     77100
#     92865
#     106155
#     121787
#     130695
#     147832
#     169157
#     180400
#     187357
#     201820
#     212965
#     219157
#     246525
#     270247
#     306280
#     319862
# 
# Disc length: 4377
# 
# Revision: 8
# Processed by: cddbd v1.5.2PL0 Copyright (c) Steve Scherf et al.
# Submitted via: fre:ac v1.0.17
# 
DISCID=65111719
DTITLE=Rent - Original Broadway Cast Recording - Rent - OBCR [CD1-2)
DYEAR=1996
DGENRE=Broadway Musical
TTITLE0=Tune Up #1
TTITLE1=Voice Mail #1
TTITLE2=Tune Up #2
TTITLE3=Rent
TTITLE4=You Okay Honey?
TTITLE5=Tune Up #3
TTITLE6=One Song Glory
TTITLE7=Light My Candle
TTITLE8=Voice Mail #2
TTITLE9=Today 4 U
TTITLE10=You'll See
TTITLE11=Tango: Maureen
TTITLE12=Life Support
TTITLE13=Out Tonight
TTITLE14=Another Day
TTITLE15=Will I?
TTITLE16=On The Street
TTITLE17=Santa Fe
TTITLE18=I'll Cover You
TTITLE19=We're Okay
TTITLE20=Christmas Bells
TTITLE21=Over The Moon
TTITLE22=La Vie Boheme
TTITLE23=I Should Tell You
TTITLE24=La Vie Boheme 2
EXTD=YEAR: 1996 ID3G:  77
EXTT0=
EXTT1=
EXTT2=
EXTT3=
EXTT4=
EXTT5=
EXTT6=
EXTT7=
EXTT8=
EXTT9=
EXTT10=
EXTT11=
EXTT12=
EXTT13=
EXTT14=
EXTT15=
EXTT16=
EXTT17=
EXTT18=
EXTT19=
EXTT20=
EXTT21=
EXTT22=
EXTT23=
EXTT24=
PLAYORDER=
